HIERARCHY
ROOT Hips
{
  OFFSET -33.9132 29.2015 117.021
  CHANNELS 6 Xposition Yposition Zposition Zrotation Xrotation Yrotation
  JOINT LeftUpLeg
  {
    OFFSET 8.64259 1.95398 -2.38835
    CHANNELS 3 Zrotation Xrotation Yrotation
    JOINT LeftLeg
    {
      OFFSET 43.7702 0 0
      CHANNELS 3 Zrotation Xrotation Yrotation
      JOINT LeftFoot
      {
        OFFSET 40.6238 0 0
        CHANNELS 3 Zrotation Xrotation Yrotation
        JOINT LeftToeBase
        {
          OFFSET 12.7242 0 0
          CHANNELS 3 Zrotation Xrotation Yrotation
          End Site
          {
            OFFSET 0 0 0
          }
        }
      }
    }
  }
  JOINT RightUpLeg
  {
    OFFSET -8.2249 1.95398 -2.59336
    CHANNELS 3 Zrotation Xrotation Yrotation
    JOINT RightLeg
    {
      OFFSET 43.5653 0 0
      CHANNELS 3 Zrotation Xrotation Yrotation
      JOINT RightFoot
      {
        OFFSET 40.6238 0 0
        CHANNELS 3 Zrotation Xrotation Yrotation
        JOINT RightToeBase
        {
          OFFSET 12.7242 0 0
          CHANNELS 3 Zrotation Xrotation Yrotation
          End Site
          {
            OFFSET 0 0 0
          }
        }
      }
    }
  }
  JOINT Spine
  {
    OFFSET 0.165834 0.87714 6.61349
    CHANNELS 3 Zrotation Xrotation Yrotation
    JOINT Spine1
    {
      OFFSET 7.38963 1.71661e-005 0
      CHANNELS 3 Zrotation Xrotation Yrotation
      JOINT Spine2
      {
        OFFSET 11.9445 1.14441e-005 0
        CHANNELS 3 Zrotation Xrotation Yrotation
        JOINT Spine3
        {
          OFFSET 14.7254 4.19617e-005 0
          CHANNELS 3 Zrotation Xrotation Yrotation
          JOINT Spine4
          {
            OFFSET 10.9679 0 0
            CHANNELS 3 Zrotation Xrotation Yrotation
            JOINT RightShoulder
            {
              OFFSET 2.46616 -1.6653 3.69651
              CHANNELS 3 Zrotation Xrotation Yrotation
              JOINT RightArm
              {
                OFFSET 13.0012 0 0
                CHANNELS 3 Zrotation Xrotation Yrotation
                JOINT RightForeArm
                {
                  OFFSET 28.7848 1.62311e-005 0
                  CHANNELS 3 Zrotation Xrotation Yrotation
                  JOINT RightHand
                  {
                    OFFSET 26.5688 1.62095e-005 0
                    CHANNELS 3 Zrotation Xrotation Yrotation
                    End Site
                    {
                      OFFSET 0 0 0
                    }
                  }
                }
              }
            }
            JOINT LeftShoulder
            {
              OFFSET 2.38034 -1.29275 -3.7523
              CHANNELS 3 Zrotation Xrotation Yrotation
              JOINT LeftArm
              {
                OFFSET 16.3182 6.07031e-005 0
                CHANNELS 3 Zrotation Xrotation Yrotation
                JOINT LeftForeArm
                {
                  OFFSET 27.0901 0 0
                  CHANNELS 3 Zrotation Xrotation Yrotation
                  JOINT LeftHand
                  {
                    OFFSET 24.5451 1.51738e-005 0
                    CHANNELS 3 Zrotation Xrotation Yrotation
                    End Site
                    {
                      OFFSET 0 0 0
                    }
                  }
                }
              }
            }
            JOINT Neck
            {
              OFFSET 5.0226 -0.0266342 0
              CHANNELS 3 Zrotation Xrotation Yrotation
              JOINT Head
              {
                OFFSET 6.69364 2.86102e-005 0
                CHANNELS 3 Zrotation Xrotation Yrotation
                End Site
                {
                  OFFSET 0 0 0
                }
              }
            }
          }
        }
      }
    }
  }
}
MOTION
Frames:	15
Frame Time:	0.0416667
30.9092 46.3749 -1.49095 -4.06053 -79.2129 -4.11822 -39.0252 59.9003 -13.783 -136.665 24.3392 8.06354 97.9826 28.6821 -0.933389 -1.17968 -18.9001 4.00421 54.8743 52.9351 -173.618 -136.446 -15.5399 -8.89592 94.6605 -31.1362 -7.72636 14.4121 3.84013 7.46393 0.728704 12.2346 -90.4475 2.40803 1.28098 -0.851363 -9.2626 1.24227 -0.906927 -31.8021 1.47761 -0.426967 -11.7894 1.47762 -0.426965 89.2193 -14.2929 -116.645 7.0016 28.9185 -53.8369 -3.74807 -11.4475 -4.89595 8.91539 -2.38821 -32.9047 -90.0568 -23.2109 70.5976 -22.5319 -24.2468 -92.4701 -5.54014 6.0148 -0.0426436 -24.1799 3.15318 -19.0086 35.9377 -0.492927 -0.889081 -5.96797 -0.049385 -0.467479 
30.85 45.7216 -1.04947 -5.73712 -80.3631 -5.73178 -39.8888 60.7032 -12.6391 -137.743 23.8603 8.07496 99.7535 30.4012 -0.448961 -3.17703 -18.7485 2.28845 55.8198 52.9686 -174.733 -137.705 -15.3569 -9.0057 94.8945 -31.7414 -8.59655 13.7741 3.13275 9.93746 0.732918 12.0731 -90.4355 2.73109 1.29303 -0.834085 -8.93954 1.25507 -0.890199 -31.4792 1.48392 -0.406856 -11.4665 1.48392 -0.406857 89.2533 -14.3215 -116.539 8.32498 27.7037 -53.9428 -3.77995 -12.2058 -4.89852 11.2205 -2.87219 -32.0063 -90.1264 -24.1606 70.8549 -23.9297 -22.7395 -91.178 -5.42292 7.94105 -0.0424474 -25.5284 3.5152 -19.518 36.3607 -0.810187 -0.864124 -5.81276 -0.358647 -0.384983 
30.8236 48.0219 -1.33437 -5.81313 -77.652 -6.02933 -41.5138 60.429 -11.3224 -134.241 25.112 7.82714 98.5959 29.9389 0.0953091 -2.78071 -18.681 2.51332 55.3255 53.7558 -173.874 -134.455 -17.8481 -8.76859 92.9368 -29.6385 -7.65229 15.3241 3.42608 7.56455 0.739341 11.7046 -90.3281 3.46752 1.34629 -0.637415 -8.20289 1.31694 -0.69606 -30.7434 1.47561 -0.203262 -10.7308 1.47561 -0.203256 89.0278 -14.5599 -116.939 8.80586 27.237 -53.8428 -3.8251 -13.2772 -4.90263 10.3976 -2.65157 -31.8038 -90.2415 -24.412 70.721 -23.0529 -22.6098 -89.201 -5.97142 6.92811 -0.0413467 -25.0693 3.47325 -19.89 37.6561 -1.00064 -0.976661 -5.66592 -0.476781 -0.375366 
30.7535 53.2786 -2.15782 -4.15568 -71.9353 -4.75399 -44.7798 60.2121 -9.33057 -125.532 27.8514 6.44272 96.0106 28.3871 0.861386 -0.257742 -17.475 3.02352 55.4985 55.3486 -173.217 -126.122 -21.7244 -7.38616 90.7186 -27.4932 -6.93971 14.5775 3.42813 8.36053 0.71595 11.2371 -90.2192 4.4017 1.34143 -0.441475 -7.26865 1.3207 -0.500106 -29.8094 1.41208 -0.0178357 -9.79668 1.41208 -0.0178272 89.3729 -14.6054 -116.041 10.071 26.2073 -54.869 -3.75808 -11.692 -4.89649 9.40477 -2.43972 -32.0877 -90.2489 -24.8643 70.892 -23.4418 -22.2136 -88.9304 -5.8949 8.67678 -0.0398153 -24.1324 3.49518 -20.4202 39.16 -1.30289 -1.17302 -5.80008 -0.657182 -0.137842 
30.5395 60.2656 -2.97471 -2.6087 -65.6 -3.02465 -49.1556 62.3992 -7.20185 -112.556 30.1252 2.7405 93.1511 25.9864 0.95424 -0.929264 -17.0694 2.01427 58.8102 58.1732 -175.236 -113.839 -26.7525 -3.80555 87.5613 -24.6623 -6.77912 14.7678 3.54774 7.8408 0.705946 10.7948 -90.1715 5.28605 1.33951 -0.364048 -6.38426 1.32219 -0.42267 -28.925 1.38698 0.0554375 -8.91231 1.38698 0.0554358 89.0804 -15.5865 -116.107 10.4238 25.8657 -54.8512 -3.86963 -14.3266 -4.90729 8.87462 -2.21391 -30.9668 -90.4083 -25.2853 70.7402 -23.8607 -21.9101 -88.3601 -5.55051 14.793 -0.0381882 -22.5555 3.81564 -22.3618 39.3973 -1.80807 -1.82061 -5.91797 -0.828328 0.24003 
30.324 68.0246 -3.13191 -2.00702 -58.862 -1.93784 -54.673 65.8097 -3.41212 -96.3024 32.9676 -3.71542 87.7104 21.6381 1.32706 2.94537 -15.9135 3.62744 64.7754 61.5779 179.412 -97.558 -30.5645 2.84748 84.7878 -21.1837 -4.8249 13.4069 3.28266 9.90919 0.694155 10.322 -90.1558 6.2317 1.32092 -0.349455 -5.43864 1.30425 -0.407277 -27.9792 1.36486 0.0637595 -7.96654 1.36486 0.0637595 88.6728 -16.6697 -116.377 11.1506 25.0481 -53.9817 -3.97847 -16.8715 -4.92364 6.7572 -1.7135 -30.8468 -90.568 -25.9888 70.7028 -22.0912 -21.6673 -86.5832 -6.19035 20.0995 -0.0358546 -20.5136 3.66268 -22.6674 39.1953 -1.8006 -1.65523 -4.92937 -0.882491 -0.716785 
30.2645 75.6268 -2.60967 -1.9031 -53.5608 -1.74869 -67.0981 69.2613 8.69146 -77.0946 35.2401 -12.9569 82.7016 17.7309 1.74939 3.67242 -16.6806 5.18784 75.9109 65.2368 168.381 -77.7531 -35.4686 12.3261 79.4813 -17.1285 -6.17669 12.8336 3.14323 10.7959 0.669835 9.86573 -90.0983 7.14385 1.29548 -0.251799 -4.52648 1.28314 -0.308598 -27.0668 1.31125 0.14923 -7.05414 1.31125 0.149242 88.6005 -17.0332 -116.313 12.1945 23.8641 -52.4097 -4.19102 -21.6486 -4.96618 7.01737 -1.96812 -33.4643 -90.7282 -26.5035 70.5924 -20.2526 -21.0815 -83.9983 -6.78005 27.1926 -0.0332134 -20.3499 4.18451 -24.5043 39.2793 -1.43852 -1.2487 -4.41022 -0.733381 -1.08791 
30.3721 82.3554 -1.7301 -1.89983 -50.7463 -2.40688 -91.6952 71.3887 32.7612 -57.1782 32.7432 -22.7314 77.3651 13.4389 1.96896 1.60536 -15.1744 1.62331 95.867 68.7928 149.692 -59.4364 -31.8654 19.9441 76.411 -13.1985 -3.56387 12.1436 3.23809 11.2025 0.553988 9.46985 -89.9631 7.93433 1.12205 0.0109626 -3.73615 1.12145 -0.0384373 -26.2749 1.06687 0.347729 -6.26228 1.06688 0.347723 88.0973 -18.1693 -116.767 13.3604 22.6549 -51.1884 -4.42138 -26.5432 -5.03513 5.19066 -1.55167 -34.4651 -90.7325 -27.277 70.8907 -17.7323 -20.4326 -80.8585 -7.81901 30.4855 -0.0284011 -19.0898 4.30183 -26.4109 39.6108 -1.38738 -1.33922 -4.72545 -0.636784 -0.93521 
30.549 87.4659 -0.75152 -2.50432 -52.3586 -3.08329 -123.183 69.0566 63.0043 -43.9324 26.183 -26.7878 74.1141 10.2459 0.234092 3.71813 -14.6916 2.65643 124.169 67.3975 123.583 -46.2732 -26.3889 22.9203 73.5603 -10.4078 -2.67807 11.9683 3.28057 11.2533 0.500583 9.25888 -89.9414 8.356 1.02489 0.0535246 -3.31453 1.02625 0.00835688 -25.8526 0.961414 0.359106 -5.83997 0.961417 0.359117 87.5524 -19.5279 -117.159 15.0389 20.9879 -49.5431 -4.55097 -29.1719 -5.08099 2.3714 -0.849913 -35.728 -90.7561 -27.303 70.8545 -18.1254 -18.8506 -77.8721 -7.97083 34.998 -0.0224684 -17.0165 4.077 -27.0819 38.4508 -1.16631 -1.85026 -3.92311 -0.217225 -0.435014 
30.6652 91.4552 0.48969 -3.52826 -57.3032 -3.84931 -146.125 62.1894 82.4338 -37.0655 19.5788 -24.0766 71.2965 7.84115 -0.26538 6.71028 -12.875 2.62645 146.206 60.5757 105.203 -38.3147 -20.3144 20.4432 70.8511 -7.87751 -2.10032 14.6873 2.89901 9.62556 0.421176 9.13646 -89.9589 8.6011 0.858634 0.0267158 -3.06955 0.858985 -0.011097 -25.6068 0.810905 0.283545 -5.59418 0.810909 0.283556 87.6376 -20.6552 -116.263 17.614 18.6401 -48.589 -4.66245 -31.3354 -5.12509 0.791527 -0.441972 -37.4121 -90.7598 -28.382 71.266 -17.9386 -17.1473 -75.0868 -8.67375 35.9303 -0.00993214 -16.877 4.10461 -27.2575 36.6037 -1.13428 -2.77973 -3.77961 0.205584 -0.212196 
30.6464 94.3713 2.16012 -4.2029 -63.8465 -4.62241 -157.971 52.6182 89.8408 -33.4774 14.059 -18.3319 70.3258 6.51664 -0.995724 10.571 -11.8109 4.38678 158.725 51.4487 96.3997 -34.2344 -14.3523 15.6182 69.5293 -6.3726 -1.41903 16.986 2.28453 8.90493 0.339715 8.92812 -89.9758 9.01773 0.688518 0.000279343 -2.65301 0.687856 -0.0300425 -25.1895 0.656597 0.207185 -5.1769 0.656594 0.207181 87.7822 -21.1887 -115.627 20.0471 16.4738 -45.7302 -4.64207 -30.9678 -5.11666 -0.509812 -0.0489707 -40.1242 -91.2701 -30.7107 71.1666 -14.5459 -15.1838 -69.1629 -10.4439 33.3967 -0.0136591 -14.4125 3.33378 -27.0305 31.9828 -1.12801 -2.69631 -4.04941 0.0522795 -0.468063 
30.6498 96.3941 4.34602 -6.39848 -70.6739 -7.35021 -164.127 42.1457 92.1109 -30.338 9.17529 -13.0425 70.0312 5.9256 -1.87871 11.5028 -11.331 4.48576 165.436 41.837 92.59 -31.3703 -10.8516 10.761 68.5468 -5.42345 -0.683246 20.7674 1.70317 6.19327 0.278177 8.68788 -89.9181 9.49788 0.591623 0.117649 -2.17294 0.596226 0.0914746 -24.709 0.528907 0.290009 -4.69631 0.528916 0.290013 88.185 -21.4764 -114.565 22.6698 14.3388 -42.8118 -4.2905 -23.8068 -4.99399 1.39095 -0.768441 -45.5485 -91.0934 -32.6777 72.1981 -14.9345 -13.8967 -65.2433 -10.3586 35.334 0.0556273 -16.0666 4.34552 -31.6559 26.8307 -0.925071 -1.50787 -6.08264 -0.278622 -1.55267 
30.6969 97.8072 6.78289 -7.78157 -77.1074 -9.34924 -168.37 32.2227 92.1176 -27.6857 5.38995 -8.49729 69.9959 5.77954 -2.5449 16.7171 -9.60516 6.61481 169.253 32.7263 90.4533 -29.5884 -7.33651 7.22394 69.142 -5.66085 -0.288052 21.4718 1.74598 5.14606 0.189181 8.39549 -89.8475 10.0823 0.446489 0.265729 -1.58858 0.457755 0.245822 -24.1239 0.345981 0.387637 -4.11129 0.345983 0.387641 89.1638 -22.0492 -112.077 26.436 11.3203 -41.5827 -3.96354 -16.4172 -4.91088 2.15702 -1.11772 -47.4946 -90.1577 -34.2662 74.419 -16.9148 -13.0773 -62.736 -9.82066 33.2019 -0.0355054 -17.7151 4.9049 -32.8676 19.2775 -0.54523 -2.86418 -4.44536 0.346503 0.527856 
30.6391 99.1456 9.41852 -15.3777 -83.2541 -17.0765 -171.355 21.8824 91.9417 -23.8203 2.34475 -4.92193 69.6523 5.39246 -3.52209 17.0515 -9.61213 6.96698 171.169 22.4829 89.5715 -25.5201 -5.15123 4.79367 68.6615 -5.28273 0.269514 23.246 1.14018 4.71141 0.180528 8.23222 -89.876 10.409 0.416513 0.20995 -1.26186 0.425347 0.191408 -23.7973 0.334163 0.325427 -3.78461 0.334157 0.325422 90.0618 -21.9885 -110.112 28.963 9.32098 -40.9466 -3.78239 -12.2253 -4.89557 2.72876 -1.39876 -49.7139 -89.3721 -35.8493 76.2788 -19.5464 -12.9841 -61.1374 -8.13062 32.4402 -1.3938 -19.9905 5.95506 -35.7812 14.6184 -0.22597 -1.61768 -5.18794 0.225974 -0.431181 
30.4981 100.079 11.8443 -49.8768 -87.0487 -51.718 -172.445 13.3644 91.73 -19.5496 0.995731 -3.16447 68.5766 4.83426 -3.4924 19.112 -9.30495 8.5376 172.283 14.234 89.2912 -21.6888 -4.24184 3.05802 68.4298 -5.07534 0.650772 23.6634 1.2657 3.68846 0.216067 7.95451 -89.8611 10.9643 0.494485 0.228824 -0.70655 0.504068 0.206839 -23.2421 0.402842 0.366848 -3.22943 0.402853 0.366869 90.8273 -21.8854 -108.437 31.5958 7.14869 -42.0057 -3.35027 -6.44846 -3.15823 3.12785 -1.6429 -51.3932 -89.2682 -36.4238 76.6312 -21.454 -12.7262 -58.0186 -5.39354 29.9203 -5.83891 -17.3629 4.92409 -35.3446 10.0291 0.228866 -1.1366 -6.65675 0.49587 -0.623083 
